<svg xmlns="http://www.w3.org/2000/svg" width="12" height="8.5" viewBox="0 0 12 8.5">
  <g id="Hamburger" transform="translate(-1134.75 -58.5)">
    <path id="Line_13" data-name="Line 13" d="M10.669.75H-.169A.682.682,0,0,1-.75,0,.682.682,0,0,1-.169-.75H10.669A.682.682,0,0,1,11.25,0,.682.682,0,0,1,10.669.75Z" transform="translate(1135.5 66.25)" fill="#fff"/>
    <path id="Line_13-2" data-name="Line 13" d="M10.669.75H-.169A.682.682,0,0,1-.75,0,.682.682,0,0,1-.169-.75H10.669A.682.682,0,0,1,11.25,0,.682.682,0,0,1,10.669.75Z" transform="translate(1135.5 62.75)" fill="#fff"/>
    <path id="Line_13-3" data-name="Line 13" d="M10.669.75H-.169A.682.682,0,0,1-.75,0,.682.682,0,0,1-.169-.75H10.669A.682.682,0,0,1,11.25,0,.682.682,0,0,1,10.669.75Z" transform="translate(1135.5 59.25)" fill="#fff"/>
  </g>
</svg>
