<svg xmlns="http://www.w3.org/2000/svg" width="48" height="36" viewBox="0 0 48 36">
  <path id="icon-add-image" d="M43.5,64H4.5A4.5,4.5,0,0,0,0,68.5v27A4.5,4.5,0,0,0,4.5,100h39A4.5,4.5,0,0,0,48,95.5v-27A4.5,4.5,0,0,0,43.5,64Zm-.562,31.5H5.063a.562.562,0,0,1-.562-.562V69.063a.562.562,0,0,1,.563-.562H42.938a.562.562,0,0,1,.563.563V94.938A.562.562,0,0,1,42.938,95.5ZM12,72.25A3.75,3.75,0,1,0,15.75,76,3.75,3.75,0,0,0,12,72.25ZM9,91H39V83.5l-8.2-8.2a1.125,1.125,0,0,0-1.591,0L18,86.5l-3.7-3.7a1.125,1.125,0,0,0-1.591,0L9,86.5Z" transform="translate(0 -64)" fill="#959595"/>
</svg>