<svg xmlns="http://www.w3.org/2000/svg" width="22" height="20" viewBox="0 0 22 20">
  <g id="icon-paste-link" transform="translate(0 -16.6)">
    <g id="Group_78" data-name="Group 78" transform="translate(0 16.6)">
      <path id="Path_36" data-name="Path 36" d="M11.629,188.971a.589.589,0,0,0,0,.85,2.458,2.458,0,0,1,0,3.532l-5.24,5.116a2.6,2.6,0,0,1-3.618,0l-.788-.77a2.458,2.458,0,0,1,0-3.532l5.24-5.116a.589.589,0,0,0,0-.85.624.624,0,0,0-.87,0l-5.24,5.116a3.633,3.633,0,0,0,0,5.231l.788.77a3.861,3.861,0,0,0,5.359,0L12.5,194.2a3.643,3.643,0,0,0,0-5.231A.624.624,0,0,0,11.629,188.971Z" transform="translate(0 -180.399)" fill="#484848"/>
      <path id="Path_37" data-name="Path 37" d="M196.795,18.451l-.788-.77a3.861,3.861,0,0,0-5.359,0l-5.24,5.116a3.643,3.643,0,0,0,0,5.231.624.624,0,0,0,.87,0,.589.589,0,0,0,0-.85,2.458,2.458,0,0,1,0-3.532l5.24-5.116a2.6,2.6,0,0,1,3.618,0l.788.77a2.458,2.458,0,0,1,0,3.532l-5.24,5.116a.589.589,0,0,0,0,.85.627.627,0,0,0,.433.178.608.608,0,0,0,.433-.178l5.24-5.116a3.638,3.638,0,0,0,0-5.231Z" transform="translate(-175.902 -16.6)" fill="#484848"/>
    </g>
  </g>
</svg>
