<svg id="icon-information" xmlns="http://www.w3.org/2000/svg" width="20.112" height="20.112" viewBox="0 0 20.112 20.112">
  <path id="Path_32" data-name="Path 32" d="M10.056,0A10.056,10.056,0,1,0,20.112,10.056,10.068,10.068,0,0,0,10.056,0Zm0,18.826a8.77,8.77,0,1,1,8.77-8.77A8.78,8.78,0,0,1,10.056,18.826Z" fill="#484848"/>
  <path id="Path_33" data-name="Path 33" d="M108.769,115.892l-1.2.7v-5.13a.643.643,0,0,0-.939-.571l-1.713.889a.643.643,0,1,0,.592,1.142l.774-.4v5.193a.643.643,0,0,0,.968.555l2.17-1.27a.643.643,0,0,0-.65-1.11Z" transform="translate(-97.096 -102.905)" fill="#484848"/>
  <circle id="Ellipse_8" data-name="Ellipse 8" cx="0.888" cy="0.888" r="0.888" transform="translate(8.939 5.3)" fill="#484848"/>
</svg>
