<svg xmlns="http://www.w3.org/2000/svg" width="24" height="20" viewBox="0 0 24 20">
  <g id="icon-addimage" transform="translate(0 -56)">
    <path id="Path_34" data-name="Path 34" d="M24,58.481v-.418A2,2,0,0,0,22.085,56H1.915A2,2,0,0,0,0,58.063V73.937H0A2,2,0,0,0,1.915,76h20.17A2,2,0,0,0,24,73.937V58.482Zm-22.085-1.7h20.17a1.238,1.238,0,0,1,1.188,1.279v.255c-1.7,1.826-4.5,4.828-6.823,7.326l-3.644-3.925a1.084,1.084,0,0,0-1.611,0L.727,72.992V58.063A1.238,1.238,0,0,1,1.915,56.783Zm20.17,18.433H1.915A1.224,1.224,0,0,1,.736,74.09L11.709,62.272a.392.392,0,0,1,.583,0L15.935,66.2c-1.911,2.057-3.387,3.654-3.451,3.745a.412.412,0,0,0,.073.548.345.345,0,0,0,.218.078.354.354,0,0,0,.282-.144c.279-.338,6.965-7.516,10.215-11V73.937A1.238,1.238,0,0,1,22.085,75.217Z" transform="translate(0 0)" fill="#484848"/>
    <path id="Path_35" data-name="Path 35" d="M65.915,124.125A2.068,2.068,0,1,0,64,122.063,2,2,0,0,0,65.915,124.125Zm0-3.342a1.283,1.283,0,1,1-1.188,1.279A1.238,1.238,0,0,1,65.915,120.783Z" transform="translate(-60.897 -60.658)" fill="#484848"/>
  </g>
</svg>
