<svg xmlns="http://www.w3.org/2000/svg" width="12.826" height="12" viewBox="0 0 12.826 12">
  <path id="icon-date" d="M9.575,10.259a.392.392,0,0,0-.4.38v2.489a.389.389,0,0,0,.4.376h.219a.392.392,0,0,0,.409-.376V10.638a.4.4,0,0,0-.409-.38Zm6.621,0a.4.4,0,0,0-.409.38v2.489a.392.392,0,0,0,.409.376h.215a.392.392,0,0,0,.409-.376V10.638a.4.4,0,0,0-.409-.38ZM7.9,12.075a1.3,1.3,0,0,0-1.317,1.292v7.6a1.305,1.305,0,0,0,1.317,1.3H18.091a1.305,1.305,0,0,0,1.317-1.3v-7.6a1.3,1.3,0,0,0-1.317-1.292h-1v1.263a.6.6,0,0,1-.623.578h-.33a.6.6,0,0,1-.623-.578V12.075h-5.04v1.263a.6.6,0,0,1-.623.578H9.517a.6.6,0,0,1-.619-.578V12.075h-1Zm-.491,3.6h11.17v4.788a.863.863,0,0,1-.867.867H8.279a.866.866,0,0,1-.871-.867V15.679Z" transform="translate(-6.582 -10.259)" fill="#2d2d2d"/>
</svg>
