<svg xmlns="http://www.w3.org/2000/svg" width="42.039" height="42.039" viewBox="0 0 42.039 42.039">
  <g id="icon-facebook-square" transform="translate(-322.758 -3557.893) rotate(-3)">
    <g id="XMLID_834_" transform="translate(74.297 3582)">
      <path id="XMLID_835_" d="M77.022,10.652h2.17v9.025a.321.321,0,0,0,.319.323h3.679a.321.321,0,0,0,.319-.323V10.695H86a.321.321,0,0,0,.317-.286L86.7,7.086a.325.325,0,0,0-.079-.252.318.318,0,0,0-.238-.108H83.51V4.644c0-.628.335-.946.995-.946h1.879a.321.321,0,0,0,.319-.323V.325A.321.321,0,0,0,86.384,0H83.795c-.018,0-.059,0-.119,0a4.93,4.93,0,0,0-3.244,1.236A3.459,3.459,0,0,0,79.3,4.291V6.727H77.022a.321.321,0,0,0-.319.323v3.28A.321.321,0,0,0,77.022,10.652Z"/>
    </g>
    <g id="Rectangle_14" data-name="Rectangle 14" transform="translate(136 3572)" fill="none" stroke="#000" stroke-width="1">
      <rect width="40" height="40" stroke="none"/>
      <rect x="0.5" y="0.5" width="39" height="39" fill="none"/>
    </g>
  </g>
</svg>
