<svg xmlns="http://www.w3.org/2000/svg" width="18" height="14" viewBox="0 0 18 14">
  <g id="icon-hamburger-dark" transform="translate(-1134.75 -58.5)">
    <path id="Line_13" data-name="Line 13" d="M16.379,1.721H.121C-.36,1.721-.75,1.168-.75.485S-.36-.75.121-.75H16.379c.481,0,.871.553.871,1.235S16.86,1.721,16.379,1.721Z" transform="translate(1135.5 70.779)" fill="#2d2d2d"/>
    <path id="Line_13-2" data-name="Line 13" d="M16.379,1.721H.121C-.36,1.721-.75,1.168-.75.485S-.36-.75.121-.75H16.379c.481,0,.871.553.871,1.235S16.86,1.721,16.379,1.721Z" transform="translate(1135.5 65.015)" fill="#2d2d2d"/>
    <path id="Line_13-3" data-name="Line 13" d="M16.379,1.721H.121C-.36,1.721-.75,1.168-.75.485S-.36-.75.121-.75H16.379c.481,0,.871.553.871,1.235S16.86,1.721,16.379,1.721Z" transform="translate(1135.5 59.25)" fill="#2d2d2d"/>
  </g>
</svg>
