<svg xmlns="http://www.w3.org/2000/svg" width="18" height="14" viewBox="0 0 18 14">
  <path id="icon-chat-send" d="M7.991,6.176A20.773,20.773,0,0,0,5.609,5.31a1.96,1.96,0,0,0-1.95.331,1.855,1.855,0,0,0-.31,1.913,19.794,19.794,0,0,0,.918,2.319l.68,1.553h5.4a.772.772,0,1,1,0,1.544h-5.4l-.68,1.553a19.8,19.8,0,0,0-.918,2.319,1.855,1.855,0,0,0,.31,1.913,1.96,1.96,0,0,0,1.95.331,20.776,20.776,0,0,0,2.382-.866l12.03-4.849a5.359,5.359,0,0,0,.625-.282.978.978,0,0,0,0-1.785,5.359,5.359,0,0,0-.625-.282Z" transform="translate(-3.223 -5.198)" fill="#13113f"/>
</svg>
