<svg xmlns="http://www.w3.org/2000/svg" width="20" height="20" viewBox="0 0 20 20">
  <g id="Group_74" data-name="Group 74" transform="translate(0)">
    <path id="Path_30" data-name="Path 30" d="M134.956,49.778a4.236,4.236,0,0,0-4.231,4.231,6.071,6.071,0,0,0,1.194,3.437,3.472,3.472,0,0,0,6.073,0,6.071,6.071,0,0,0,1.194-3.437A4.236,4.236,0,0,0,134.956,49.778Zm0,8.554a3.036,3.036,0,0,1-2.309-1.42,5.214,5.214,0,0,1-1.02-2.9,3.329,3.329,0,0,1,6.658,0C138.285,55.915,136.717,58.332,134.956,58.332Z" transform="translate(-124.956 -46.785)"/>
    <path id="Path_31" data-name="Path 31" d="M44.788,0a10,10,0,1,0,10,10A10.011,10.011,0,0,0,44.788,0Zm0,19.1a9.045,9.045,0,0,1-4.917-1.446A4.914,4.914,0,0,1,41.6,14.076a1.309,1.309,0,0,1,1.529-.1,3.055,3.055,0,0,0,3.309,0,1.307,1.307,0,0,1,1.525.094A4.919,4.919,0,0,1,49.7,17.652,9.044,9.044,0,0,1,44.788,19.1Zm5.767-2.067a5.821,5.821,0,0,0-2-3.647,2.207,2.207,0,0,0-2.575-.177,2.164,2.164,0,0,1-2.374,0,2.21,2.21,0,0,0-2.58.181,5.815,5.815,0,0,0-2,3.642,9.1,9.1,0,1,1,11.535,0Z" transform="translate(-34.788)"/>
  </g>
</svg>
