<svg xmlns="http://www.w3.org/2000/svg" width="28" height="28" viewBox="0 0 28 28">
  <g id="icon-verified" transform="translate(-1.1 -1.1)">
    <path id="Path_32" data-name="Path 32" d="M11.159,17.381a.743.743,0,0,1-.527-.218L7.318,13.849a.746.746,0,0,1,1.054-1.054l2.786,2.786,6.763-6.763a.746.746,0,1,1,1.054,1.054l-7.29,7.29A.743.743,0,0,1,11.159,17.381Z" transform="translate(1.953 2.441)" fill="#3b35b8"/>
    <path id="Path_33" data-name="Path 33" d="M15.1,29.1a4.719,4.719,0,0,1-4.339-2.858.486.486,0,0,0-.4-.206.208.208,0,0,0-.075.011A4.724,4.724,0,0,1,4.153,19.91a.481.481,0,0,0-.2-.471,4.724,4.724,0,0,1,0-8.679.481.481,0,0,0,.2-.471A4.724,4.724,0,0,1,10.29,4.153a.206.206,0,0,0,.075.011.486.486,0,0,0,.4-.206,4.724,4.724,0,0,1,8.679,0,.485.485,0,0,0,.4.206.208.208,0,0,0,.075-.011,4.724,4.724,0,0,1,6.137,6.137.481.481,0,0,0,.2.471,4.724,4.724,0,0,1,0,8.679.481.481,0,0,0-.2.471,4.724,4.724,0,0,1-6.137,6.137.206.206,0,0,0-.075-.011.493.493,0,0,0-.4.206A4.719,4.719,0,0,1,15.1,29.1Zm-4.735-4.555a1.946,1.946,0,0,1,1.766,1.108,3.232,3.232,0,0,0,5.939,0,1.946,1.946,0,0,1,1.766-1.108,1.686,1.686,0,0,1,.627.117,3.232,3.232,0,0,0,4.2-4.2,1.942,1.942,0,0,1,.991-2.393,3.232,3.232,0,0,0,0-5.939,1.942,1.942,0,0,1-.991-2.393,3.233,3.233,0,0,0-4.2-4.2,1.686,1.686,0,0,1-.627.117A1.946,1.946,0,0,1,18.07,4.547a3.232,3.232,0,0,0-5.939,0,1.946,1.946,0,0,1-1.766,1.108,1.686,1.686,0,0,1-.627-.117,3.232,3.232,0,0,0-4.2,4.2,1.942,1.942,0,0,1-.991,2.393,3.232,3.232,0,0,0,0,5.939,1.942,1.942,0,0,1,.991,2.393,3.233,3.233,0,0,0,4.2,4.2A1.686,1.686,0,0,1,10.365,24.545Z" transform="translate(0)" fill="#3b35b8"/>
  </g>
</svg>
