<svg xmlns="http://www.w3.org/2000/svg" width="18" height="18" viewBox="0 0 18 18">
  <g id="icon-chat" transform="translate(-48 -50)">
    <path id="Path_40" data-name="Path 40" d="M61.957,128.6H50.641A2.644,2.644,0,0,1,48,125.957V114.641A2.644,2.644,0,0,1,50.641,112h6.9a.754.754,0,1,1,0,1.509h-6.9a1.133,1.133,0,0,0-1.132,1.132v11.317a1.133,1.133,0,0,0,1.132,1.132H61.957a1.133,1.133,0,0,0,1.132-1.132v-7.676a.754.754,0,0,1,1.509,0v7.676A2.644,2.644,0,0,1,61.957,128.6Z" transform="translate(0 -60.598)" fill="#fff"/>
    <path id="Path_41" data-name="Path 41" d="M423.832,48.252a.772.772,0,0,0-1.116-.027l-.595.592a.385.385,0,0,0,0,.544l.545.544a.385.385,0,0,0,.545,0l.58-.577A.782.782,0,0,0,423.832,48.252Z" transform="translate(-358.028 2)" fill="#fff"/>
    <path id="Path_42" data-name="Path 42" d="M217.2,87.5l-8.679,8.663a.433.433,0,0,0-.111.189l-.4,1.2a.188.188,0,0,0,.234.234l1.195-.4a.433.433,0,0,0,.189-.111l8.663-8.68a.433.433,0,0,0,0-.609l-.478-.481A.433.433,0,0,0,217.2,87.5Z" transform="translate(-154.306 -35.48)" fill="#fff"/>
  </g>
</svg>
