<svg xmlns="http://www.w3.org/2000/svg" width="20" height="20" viewBox="0 0 20 20">
  <path id="icon-signout" d="M55.873,46.307l-4.564,4.565a.435.435,0,1,1-.615-.615l3.822-3.823H43.391a.435.435,0,0,1,0-.87H54.516l-3.822-3.823a.435.435,0,1,1,.615-.615l4.564,4.565a.435.435,0,0,1,0,.615ZM43.391,55.13H37.3a.435.435,0,0,1-.435-.435V37.3a.435.435,0,0,1,.435-.435h6.087a.435.435,0,1,0,0-.87H37.3A1.306,1.306,0,0,0,36,37.3V54.7A1.306,1.306,0,0,0,37.3,56h6.087a.435.435,0,0,0,0-.87Z" transform="translate(-36 -36)" fill="red"/>
</svg>
